<?xml version="1.0" encoding="UTF-8"?>
<!-- Created with Inkscape (http://www.inkscape.org/) -->
<svg width="160" height="70" version="1.1" viewBox="0 0 42.333333 18.520834" xmlns="http://www.w3.org/2000/svg" xmlns:cc="http://creativecommons.org/ns#" xmlns:dc="http://purl.org/dc/elements/1.1/" xmlns:rdf="http://www.w3.org/1999/02/22-rdf-syntax-ns#">
 <metadata>
  <rdf:RDF>
   <cc:Work rdf:about="">
    <dc:format>image/svg+xml</dc:format>
    <dc:type rdf:resource="http://purl.org/dc/dcmitype/StillImage"/>
    <dc:title/>
   </cc:Work>
  </rdf:RDF>
 </metadata>
<g id="group">
 <path d="m0 0v18.521l28.912 0.0072 2.6361-18.522z" fill="#fff"><set attributeName="fill" to="#939393" begin="group.mouseover" end="group.mouseout"/></path>
 <path d="m28.912 18.528 2.6361-18.522 10.785-0.0057934v18.521z" fill="#939393"><set attributeName="fill" to="white" begin="group.mouseover" end="group.mouseout"/></path>
 <g transform="translate(0 -278.48)">
  <path d="m2.6448 293.82 1.7229-12.168 2.8825 1e-3 2.3575 6.6456 4.2891-6.6456h2.7792l-1.7229 12.167h-2.1621l1.3529-9.5467-4.0091 6.4182h-1.8283l-2.1466-6.4192-1.3529 9.5488z" fill="#939393"><set attributeName="fill" to="white" begin="group.mouseover" end="group.mouseout"/></path>
  <path d="m19.231 293.82h-2.1632l1.725-12.167h2.1632l-0.66869 4.748h5.8725l0.66766-4.748h2.1621l-1.7229 12.169h-2.1632l0.77411-5.4333h-5.8735z" fill="#939393"><set attributeName="fill" to="white" begin="group.mouseover" end="group.mouseout"/></path>
  <path id="r_change" d="m31.452 293.82h-2.1807l1.7468-12.168c4.8392-0.0496 9.1631-0.3971 8.6309 3.5047-0.42542 3.1192-3.2444 3.5832-3.2444 3.5832l2.3767 5.0819h-2.5029l-2.1619-4.7294h-1.9889z" fill="#fff"><set attributeName="fill" to="#939393" begin="group.mouseover" end="group.mouseout"/></path>
  <path d="m32.98 283.65-0.5028 3.4553s4.9798 0.70255 4.9929-1.9586c0.01121-2.273-4.4901-1.4967-4.4901-1.4967z" fill="#939393"><set attributeName="fill" to="white" begin="group.mouseover" end="group.mouseout"/></path>
 </g>
</g>
</svg>
